#Comment line ignore any data following # character 
#Hierarchical Translation and Rotation (.htr) file 
[Header]	
#Header keywords are followed by a single value 
FileType HTR		#Single word string
DataType HTRS		#Translation followed by rotation and scale data
FileVersion 1		#integer
NumSegments 64		#integer
NumFrames 3		#integer
DataFrameRate 30		#integer, data frame rate in this file
EulerRotationOrder ZYX
CalibrationUnits mm
RotationUnits Degrees
GlobalAxisofGravity Y
BoneLengthAxis Y
ScaleFactor 1.00
[SegmentNames&Hierarchy]
#CHILD	PARENT
Pinger_Root GLOBAL
Pelvis Pinger_Root
L_Hip Pelvis
R_Hip Pelvis
Rear_Leg01 Pelvis
Spine1 Pelvis
L_Leg01 L_Hip
L_Leg02 L_Leg01
L_Leg03 L_Leg02
L_Foot L_Leg03
L_Toe1_01 L_Foot
L_Toe2_01 L_Foot
L_Toe3_01 L_Foot
planeAlignerLeft L_Foot
L_Toe1_02 L_Toe1_01
L_Toe1_03 L_Toe1_02
L_Toe2_02 L_Toe2_01
L_Toe2_03 L_Toe2_02
L_Toe3_02 L_Toe3_01
L_Toe3_03 L_Toe3_02
planeLockWeightLeft planeAlignerLeft
R_Leg01 R_Hip
R_Leg02 R_Leg01
R_Leg03 R_Leg02
R_Foot R_Leg03
planeAlignerRight R_Foot
R_Toe1_01 R_Foot
R_Toe2_01 R_Foot
R_Toe3_01 R_Foot
planeLockWeightRight planeAlignerRight
R_Toe1_02 R_Toe1_01
R_Toe1_03 R_Toe1_02
R_Toe2_02 R_Toe2_01
R_Toe2_03 R_Toe2_02
R_Toe3_02 R_Toe3_01
R_Toe3_03 R_Toe3_02
Rear_Leg02 Rear_Leg01
Rear_Leg03 Rear_Leg02
Rear_Leg04 Rear_Leg03
Rear_Foot Rear_Leg04
planeAlignerCenter Rear_Foot
Rear_Toe1_01 Rear_Foot
Rear_Toe2_01 Rear_Foot
Rear_Toe3_01 Rear_Foot
planeLockWeightCenter planeAlignerCenter
Rear_Toe1_02 Rear_Toe1_01
Rear_Toe1_03 Rear_Toe1_02
Rear_Toe2_02 Rear_Toe2_01
Rear_Toe2_03 Rear_Toe2_02
Rear_Toe3_02 Rear_Toe3_01
Rear_Toe3_03 Rear_Toe3_02
Back_Bone Spine1
Head Spine1
Motor_Bone Back_Bone
Ping_Mechanism Back_Bone
BN_LookIK Head
bottomMouth Head
L_Mouth01 Head
L_mouthFront Head
mouthGun Head
R_Mouth01 Head
R_mouthFront Head
TopMouth Head
weapon_bone Head
[BasePosition]
#SegmentName Tx, Ty, Tz, Rx, Ry, Rz, BoneLength
Pinger_Root 0.000000 0.000000 0.000000 -90.000000 0.000000 0.000000 10.000000 
Pelvis 0.000000 0.000000 0.000000 0.000000 0.000000 0.000000 10.000000 
L_Hip 0.000000 0.000000 0.000000 0.000000 0.000000 0.000000 10.000000 
R_Hip 0.000000 0.000000 0.000000 0.000000 0.000000 0.000000 10.000000 
Rear_Leg01 0.000000 0.000000 0.000000 0.000000 0.000000 0.000000 10.000000 
Spine1 0.000000 0.000000 0.000000 0.000000 0.000000 0.000000 10.000000 
L_Leg01 0.000000 0.000000 0.000000 0.000000 0.000000 0.000000 10.000000 
L_Leg02 0.000000 0.000000 0.000000 0.000000 0.000000 0.000000 10.000000 
L_Leg03 0.000000 0.000000 0.000000 0.000000 0.000000 0.000000 10.000000 
L_Foot 0.000000 0.000000 0.000000 0.000000 0.000000 0.000000 10.000000 
L_Toe1_01 0.000000 0.000000 0.000000 0.000000 0.000000 0.000000 10.000000 
L_Toe2_01 0.000000 0.000000 0.000000 0.000000 0.000000 0.000000 10.000000 
L_Toe3_01 0.000000 0.000000 0.000000 0.000000 0.000000 0.000000 10.000000 
planeAlignerLeft 0.000000 0.000000 0.000000 0.000000 0.000000 0.000000 10.000000 
L_Toe1_02 0.000000 0.000000 0.000000 0.000000 0.000000 0.000000 10.000000 
L_Toe1_03 0.000000 0.000000 0.000000 0.000000 0.000000 0.000000 10.000000 
L_Toe2_02 0.000000 0.000000 0.000000 0.000000 0.000000 0.000000 10.000000 
L_Toe2_03 0.000000 0.000000 0.000000 0.000000 0.000000 0.000000 10.000000 
L_Toe3_02 0.000000 0.000000 0.000000 0.000000 0.000000 0.000000 10.000000 
L_Toe3_03 0.000000 0.000000 0.000000 0.000000 0.000000 0.000000 10.000000 
planeLockWeightLeft 0.000000 0.000000 0.000000 0.000000 0.000000 0.000000 10.000000 
R_Leg01 0.000000 0.000000 0.000000 0.000000 0.000000 0.000000 10.000000 
R_Leg02 0.000000 0.000000 0.000000 0.000000 0.000000 0.000000 10.000000 
R_Leg03 0.000000 0.000000 0.000000 0.000000 0.000000 0.000000 10.000000 
R_Foot 0.000000 0.000000 0.000000 0.000000 0.000000 0.000000 10.000000 
planeAlignerRight 0.000000 0.000000 0.000000 0.000000 0.000000 0.000000 10.000000 
R_Toe1_01 0.000000 0.000000 0.000000 0.000000 0.000000 0.000000 10.000000 
R_Toe2_01 0.000000 0.000000 0.000000 0.000000 0.000000 0.000000 10.000000 
R_Toe3_01 0.000000 0.000000 0.000000 0.000000 0.000000 0.000000 10.000000 
planeLockWeightRight 0.000000 0.000000 0.000000 0.000000 0.000000 0.000000 10.000000 
R_Toe1_02 0.000000 0.000000 0.000000 0.000000 0.000000 0.000000 10.000000 
R_Toe1_03 0.000000 0.000000 0.000000 0.000000 0.000000 0.000000 10.000000 
R_Toe2_02 0.000000 0.000000 0.000000 0.000000 0.000000 0.000000 10.000000 
R_Toe2_03 0.000000 0.000000 0.000000 0.000000 0.000000 0.000000 10.000000 
R_Toe3_02 0.000000 0.000000 0.000000 0.000000 0.000000 0.000000 10.000000 
R_Toe3_03 0.000000 0.000000 0.000000 0.000000 0.000000 0.000000 10.000000 
Rear_Leg02 0.000000 0.000000 0.000000 0.000000 0.000000 0.000000 10.000000 
Rear_Leg03 0.000000 0.000000 0.000000 0.000000 0.000000 0.000000 10.000000 
Rear_Leg04 0.000000 0.000000 0.000000 0.000000 0.000000 0.000000 10.000000 
Rear_Foot 0.000000 0.000000 0.000000 0.000000 0.000000 0.000000 10.000000 
planeAlignerCenter 0.000000 0.000000 0.000000 0.000000 0.000000 0.000000 10.000000 
Rear_Toe1_01 0.000000 0.000000 0.000000 0.000000 0.000000 0.000000 10.000000 
Rear_Toe2_01 0.000000 0.000000 0.000000 0.000000 0.000000 0.000000 10.000000 
Rear_Toe3_01 0.000000 0.000000 0.000000 0.000000 0.000000 0.000000 10.000000 
planeLockWeightCenter 0.000000 0.000000 0.000000 0.000000 0.000000 0.000000 10.000000 
Rear_Toe1_02 0.000000 0.000000 0.000000 0.000000 0.000000 0.000000 10.000000 
Rear_Toe1_03 0.000000 0.000000 0.000000 0.000000 0.000000 0.000000 10.000000 
Rear_Toe2_02 0.000000 0.000000 0.000000 0.000000 0.000000 0.000000 10.000000 
Rear_Toe2_03 0.000000 0.000000 0.000000 0.000000 0.000000 0.000000 10.000000 
Rear_Toe3_02 0.000000 0.000000 0.000000 0.000000 0.000000 0.000000 10.000000 
Rear_Toe3_03 0.000000 0.000000 0.000000 0.000000 0.000000 0.000000 10.000000 
Back_Bone 0.000000 0.000000 0.000000 0.000000 0.000000 0.000000 10.000000 
Head 0.000000 0.000000 0.000000 0.000000 0.000000 0.000000 10.000000 
Motor_Bone 0.000000 0.000000 0.000000 0.000000 0.000000 0.000000 10.000000 
Ping_Mechanism 0.000000 0.000000 0.000000 0.000000 0.000000 0.000000 10.000000 
BN_LookIK 0.000000 0.000000 0.000000 0.000000 0.000000 0.000000 10.000000 
bottomMouth 0.000000 0.000000 0.000000 0.000000 0.000000 0.000000 10.000000 
L_Mouth01 0.000000 0.000000 0.000000 0.000000 0.000000 0.000000 10.000000 
L_mouthFront 0.000000 0.000000 0.000000 0.000000 0.000000 0.000000 10.000000 
mouthGun 0.000000 0.000000 0.000000 0.000000 0.000000 0.000000 10.000000 
R_Mouth01 0.000000 0.000000 0.000000 0.000000 0.000000 0.000000 10.000000 
R_mouthFront 0.000000 0.000000 0.000000 0.000000 0.000000 0.000000 10.000000 
TopMouth 0.000000 0.000000 0.000000 0.000000 0.000000 0.000000 10.000000 
weapon_bone 0.000000 0.000000 0.000000 0.000000 0.000000 0.000000 10.000000 
#Beginning of Data. Separated by tabs
#Fr	Tx	Ty	Tz	Rx	Ry	Rz	SF
[Pinger_Root]
19 0.000000 0.000000 0.000000 -0.000075 -0.000000 -0.000020 0.000000
20 0.000000 0.000000 0.000000 -0.000075 -0.000000 -0.000020 0.000000
21 0.000000 0.000000 0.000000 -0.000075 -0.000000 -0.000020 0.000000
[Pelvis]
19 265.131348 547.044739 4921.098633 47.730877 -86.256660 -40.060028 4958.504395
20 225.840347 460.552979 4954.945801 36.876247 -85.035210 -28.742611 4981.425781
21 186.347565 374.300354 4984.926758 34.015102 -84.526680 -25.711325 5002.431641
[L_Hip]
19 5.766392 125.831482 872.656799 178.273712 -80.858322 91.051956 881.701050
20 5.766392 125.831482 872.656799 -179.242462 -81.550919 88.421829 881.701050
21 5.766392 125.831482 872.656799 -178.919113 -81.630135 88.081352 881.701050
[R_Hip]
19 5.765438 125.836372 -872.654907 3.340979 81.147850 92.284683 881.699829
20 5.765438 125.836372 -872.654907 -0.342062 81.626419 88.733437 881.699829
21 5.765438 125.836372 -872.654907 -0.804328 81.680771 88.288727 881.699829
[Rear_Leg01]
19 -192.298416 -925.602966 -0.001907 -166.970215 -8.677943 -130.516800 945.367432
20 -192.298416 -925.602966 -0.001907 -167.610809 -8.096025 -126.931091 945.367432
21 -192.298416 -925.602966 -0.001907 -169.732178 -6.865817 -125.073837 945.367432
[Spine1]
19 290.604584 5.007505 0.000477 -7.237385 0.287563 21.967268 290.647736
20 290.604584 5.007505 0.000477 -8.077247 -0.955358 22.084742 290.647736
21 290.604584 5.007505 0.000477 -8.318092 -1.430807 22.130699 290.647736
[L_Leg01]
19 761.932007 -0.002384 -0.069261 81.494904 -14.507433 -73.675438 761.932068
20 761.932007 -0.002384 -0.069261 82.394432 -6.977554 -77.691803 761.932068
21 761.932007 -0.002384 -0.069261 82.598602 -3.538084 -79.619164 761.932068
[L_Leg02]
19 1441.140503 -0.000954 -0.000715 -1.390447 0.628973 -105.350700 1441.140503
20 1441.140503 -0.000954 -0.000715 -1.493299 0.589678 -94.525253 1441.140503
21 1441.140503 -0.000954 -0.000715 -1.518040 0.566437 -88.607521 1441.140503
[L_Leg03]
19 1686.963989 -0.000715 -0.000954 0.054155 -0.013455 96.235481 1686.963989
20 1686.963989 -0.000715 -0.000954 0.046975 -0.013755 97.879036 1686.963989
21 1686.963989 -0.000715 -0.000954 0.045333 -0.011959 98.052635 1686.963989
[L_Foot]
19 3041.570068 -30.715107 11.297464 -18.599098 16.747816 73.302551 3041.746094
20 3041.570068 -30.715107 11.297464 -17.749990 16.358215 68.991295 3041.746094
21 3041.570068 -30.715107 11.297464 -16.996113 16.181572 66.554642 3041.746094
[L_Toe1_01]
19 -188.216690 -224.732346 -21.137953 88.913528 -1.492952 -159.251007 293.899567
20 -188.216690 -224.732346 -21.137953 89.394951 -2.590949 -163.427200 293.899567
21 -188.216690 -224.732346 -21.137953 89.699333 -3.374829 -165.449051 293.899567
[L_Toe2_01]
19 200.746536 -219.926590 148.838394 -77.497345 -13.498907 -46.064610 332.896027
20 200.746536 -219.926590 148.838394 -77.617096 -14.188309 -44.555035 332.896027
21 200.746536 -219.926590 148.838394 -77.585175 -14.470509 -44.182652 332.896027
[L_Toe3_01]
19 188.832520 -219.859131 -191.078659 -106.268509 17.859091 -48.254967 347.140900
20 188.832520 -219.859131 -191.078659 -105.546326 15.992595 -45.908867 347.140900
21 188.832520 -219.859131 -191.078659 -105.094337 14.710052 -44.951878 347.140900
[planeAlignerLeft]
19 -87.368622 -640.797668 -7.684516 0.000000 -89.972023 -90.001633 646.771973
20 -41.772850 -617.061890 13.619495 0.000000 -89.980217 -90.001633 618.624207
21 -12.287478 -606.276550 27.301584 0.000000 -89.980217 -90.001633 607.015381
[L_Toe1_02]
19 413.761139 0.000477 0.000000 0.001390 -25.155840 0.001390 413.761139
20 413.761139 0.000477 0.000000 0.001403 -23.551954 0.001403 413.761139
21 413.761139 0.000477 0.000000 0.001412 -22.421452 0.001412 413.761139
[L_Toe1_03]
19 464.317322 0.000358 -0.000089 0.005634 65.953079 0.005634 464.317322
20 464.317322 0.000358 -0.000089 0.009509 75.820915 0.009509 464.317322
21 464.317322 0.000358 -0.000089 0.015052 81.056046 0.015052 464.317322
[L_Toe2_02]
19 342.235809 -0.000477 0.000238 0.001179 -79.428322 0.001179 342.235809
20 342.235809 -0.000477 0.000238 0.001179 -78.584839 0.001179 342.235809
21 342.235809 -0.000477 0.000238 0.001180 -77.741257 0.001180 342.235809
[L_Toe2_03]
19 420.210846 -0.000715 0.000000 -179.998703 68.566650 -179.995132 420.210846
20 420.210846 -0.000715 0.000000 -179.997787 73.346695 -179.994263 420.210846
21 420.210846 -0.000715 0.000000 -179.996613 77.155937 -179.993103 420.210846
[L_Toe3_02]
19 329.270111 0.000954 0.000000 0.001176 -82.550598 0.001176 329.270111
20 329.270111 0.000954 0.000000 0.001176 -82.306885 0.001176 329.270111
21 329.270111 0.000954 0.000000 0.001176 -82.002182 0.001176 329.270111
[L_Toe3_03]
19 439.137451 -0.001907 0.000954 179.990265 68.064629 179.997391 439.137451
20 439.137451 -0.001907 0.000954 179.995590 70.290573 -179.999084 439.137451
21 439.137451 -0.001907 0.000954 -179.997986 72.516449 -179.994446 439.137451
[planeLockWeightLeft]
19 -0.001068 0.000000 -0.000296 -0.011826 -0.004376 0.005620 0.001108
20 -0.001068 0.000000 -0.000296 -0.011826 -0.004376 0.005620 0.001108
21 -0.001068 0.000000 -0.000296 -0.011826 -0.004376 0.005620 0.001108
[R_Leg01]
19 761.455627 -0.001907 -0.000358 112.879951 -36.386127 63.389244 761.455688
20 761.455627 -0.001907 -0.000358 113.799332 -38.050610 60.553856 761.455688
21 761.455627 -0.001907 -0.000358 113.983597 -38.007664 59.472412 761.455688
[R_Leg02]
19 1441.140625 0.000000 -0.000238 0.130873 -0.029275 -113.022018 1441.140625
20 1441.140625 0.000000 -0.000238 0.147947 -0.056711 -114.039024 1441.140625
21 1441.140625 0.000000 -0.000238 0.162306 -0.062690 -112.594551 1441.140625
[R_Leg03]
19 1686.963989 0.000954 0.001431 -0.031791 0.010133 101.144753 1686.963989
20 1686.963989 0.000954 0.001431 -0.038815 0.010580 100.457954 1686.963989
21 1686.963989 0.000954 0.001431 -0.038820 0.010561 100.403252 1686.963989
[R_Foot]
19 3041.560059 -30.531288 -11.204481 9.122112 -21.987413 52.393814 3041.734131
20 3041.560059 -30.531288 -11.204481 9.790815 -21.474014 51.504284 3041.734131
21 3041.560059 -30.531288 -11.204481 10.344451 -21.176624 49.827793 3041.734131
[planeAlignerRight]
19 12.655654 -625.497437 16.959719 0.000000 -89.951546 -90.004936 625.855286
20 5.162368 -660.347534 4.996056 0.000000 -89.951546 -90.004936 660.386597
21 -1.181921 -688.444275 0.353259 0.000000 -89.951546 -90.004936 688.445374
[R_Toe1_01]
19 -188.383347 -224.864899 21.052242 90.822952 1.186396 -165.027908 294.101532
20 -188.383347 -224.864899 21.052242 90.718147 1.752438 -162.027664 294.101532
21 -188.383347 -224.864899 21.052242 90.711685 1.939960 -159.553558 294.101532
[R_Toe2_01]
19 200.637817 -220.002121 -148.787384 -101.646805 11.290568 -45.102249 332.857574
20 200.637817 -220.002121 -148.787384 -102.614594 11.473357 -47.907806 332.857574
21 200.637817 -220.002121 -148.787384 -103.215050 11.333440 -50.099236 332.857574
[R_Toe3_01]
19 188.606735 -220.092957 191.126343 -73.803299 -15.984897 -47.581318 347.192566
20 188.606735 -220.092957 191.126343 -73.241905 -14.785166 -49.993889 347.192566
21 188.606735 -220.092957 191.126343 -72.746368 -14.227585 -51.919888 347.192566
[planeLockWeightRight]
19 999.999390 0.000305 -0.000495 -0.011823 -0.004379 -0.000027 999.999390
20 999.999390 0.000305 -0.000526 -0.011823 -0.004379 -0.000027 999.999390
21 999.999390 0.000305 -0.000557 -0.011823 -0.004379 -0.000027 999.999390
[R_Toe1_02]
19 413.762085 0.000477 -0.000119 0.001418 -21.749613 0.001418 413.762085
20 413.762085 0.000477 -0.000119 0.001411 -22.570026 0.001411 413.762085
21 413.762085 0.000477 -0.000119 0.001404 -23.390310 0.001404 413.762085
[R_Toe1_03]
19 464.317810 0.000000 0.001088 0.004521 83.635078 0.006273 464.317810
20 464.317810 0.000000 0.001088 0.013388 79.941475 0.013388 464.317810
21 464.317810 0.000000 0.001088 0.010212 76.785667 0.010212 464.317810
[R_Toe2_02]
19 342.234741 -0.000954 0.000238 -0.002339 -76.804192 -0.002339 342.234741
20 342.234741 -0.000954 0.000238 -0.001636 -76.103279 -0.001636 342.234741
21 342.234741 -0.000954 0.000238 -0.000932 -75.402328 -0.000932 342.234741
[R_Toe2_03]
19 420.210846 0.000715 -0.000268 -179.991318 80.478210 -179.994827 420.210846
20 420.210846 0.000715 -0.000268 -179.988510 83.234062 -179.992020 420.210846
21 420.210846 0.000715 -0.000268 -179.984085 85.351059 -179.987579 420.210846
[R_Toe3_02]
19 329.270355 -0.000477 -0.000954 0.001178 -80.026268 0.001178 329.270355
20 329.270355 -0.000477 -0.000954 0.001178 -79.611023 0.001178 329.270355
21 329.270355 -0.000477 -0.000954 0.001179 -79.195732 0.001179 329.270355
[R_Toe3_03]
19 439.137939 0.000238 0.001431 -179.995193 79.950752 -179.991684 439.137939
20 439.137939 0.000238 0.001431 -179.994247 81.231827 -179.990738 439.137939
21 439.137939 0.000238 0.001431 -179.992416 82.948036 -179.988907 439.137939
[Rear_Leg02]
19 1162.777710 -0.029802 0.005960 29.326012 -9.070186 -120.900208 1162.777710
20 1162.777710 -0.029802 0.005960 31.029089 -2.406328 -128.995163 1162.777710
21 1162.777710 -0.029802 0.005960 31.314798 1.301667 -132.797440 1162.777710
[Rear_Leg03]
19 607.192505 -0.013351 -0.073195 0.009900 -0.006176 80.271057 607.192505
20 607.192505 -0.013351 -0.073195 0.009845 -0.006263 81.284012 607.192505
21 607.192505 -0.013351 -0.073195 0.009850 -0.006256 81.199356 607.192505
[Rear_Leg04]
19 995.874512 -0.020504 -0.011921 -0.044929 -0.012087 104.041031 995.874573
20 995.874512 -0.020504 -0.011921 -0.043095 -0.012358 113.816772 995.874573
21 995.874512 -0.020504 -0.011921 -0.039358 -0.007845 119.122368 995.874573
[Rear_Foot]
19 3096.176270 -0.067472 -0.041425 -83.321121 60.176254 91.807373 3096.176270
20 3096.176270 -0.067472 -0.041425 -93.276039 61.433910 92.712250 3096.176270
21 3096.176270 -0.067472 -0.041425 -100.577728 61.550262 89.912567 3096.176270
[planeAlignerCenter]
19 76.826927 96.202927 -699.805786 6.119097 -0.001570 179.998260 710.552979
20 34.698109 147.916229 -744.278320 1.910794 -0.001632 179.998306 759.627075
21 14.260273 182.001282 -762.765869 0.001667 -0.001660 179.998337 784.308350
[Rear_Toe1_01]
19 0.653352 83.966492 -371.173737 -2.624203 35.643272 85.948952 380.553192
20 0.653352 83.966492 -371.173737 -0.880980 38.500828 88.690132 380.553192
21 0.653352 83.966492 -371.173737 0.096631 39.650013 90.044579 380.553192
[Rear_Toe2_01]
19 178.200760 -294.826019 -362.060547 11.271518 55.767754 -54.615234 499.765686
20 178.200760 -294.826019 -362.060547 24.350389 76.261810 -45.384632 499.765686
21 178.200760 -294.826019 -362.060547 62.251801 84.608055 -8.421453 499.765686
[Rear_Toe3_01]
19 -153.359680 -308.780914 -362.060852 2.190508 56.580235 -109.055527 499.952881
20 -153.359680 -308.780914 -362.060852 -14.789219 77.314476 -126.256851 499.952881
21 -153.359680 -308.780914 -362.060852 -63.989700 83.950294 -175.509171 499.952881
[planeLockWeightCenter]
19 -0.000082 0.000305 0.000000 -0.011814 -0.004373 -0.000015 0.000316
20 -0.000081 0.000305 0.000000 -0.011814 -0.004373 -0.000015 0.000316
21 -0.000079 0.000305 0.000000 -0.011814 -0.004373 -0.000015 0.000315
[Rear_Toe1_02]
19 379.707825 0.194073 0.000477 -0.000767 -33.624729 0.000838 379.707855
20 379.707825 0.194073 0.000477 -0.000767 -33.624729 0.000838 379.707855
21 379.707825 0.194073 0.000477 -0.000767 -33.624729 0.000838 379.707855
[Rear_Toe1_03]
19 500.129700 0.165701 0.000119 -179.990433 81.571053 -179.993927 500.129761
20 500.129700 0.165701 0.000119 -179.989120 82.778435 -179.992630 500.129761
21 500.129700 0.165701 0.000119 -179.984192 85.314957 -179.987686 500.129761
[Rear_Toe2_02]
19 340.494507 0.000238 -0.000954 179.998825 -86.323158 179.998825 340.494507
20 340.494507 0.000238 -0.000954 179.998825 -86.834114 179.998825 340.494507
21 340.494507 0.000238 -0.000954 179.998825 -87.344498 179.998825 340.494507
[Rear_Toe2_03]
19 433.103577 0.000000 0.000238 -179.996475 49.668827 179.999802 433.103546
20 433.103577 0.000000 0.000238 -179.996399 51.748520 179.999908 433.103546
21 433.103577 0.000000 0.000238 -179.996231 55.388493 -179.999893 433.103546
[Rear_Toe3_02]
19 340.494141 -0.000358 -0.000477 -179.994171 -85.640495 -179.994171 340.494171
20 340.494141 -0.000358 -0.000477 -179.994171 -86.516594 -179.994171 340.494171
21 340.494141 -0.000358 -0.000477 -179.994171 -87.392410 -179.994171 340.494171
[Rear_Toe3_03]
19 433.103577 0.001431 -0.000238 179.993164 44.805004 -179.999268 433.103546
20 433.103577 0.001431 -0.000238 179.992798 50.804955 -179.999786 433.103546
21 433.103577 0.001431 -0.000238 179.992371 55.639980 179.999695 433.103546
[Back_Bone]
19 1312.175781 -701.934692 0.000954 -2.399156 1.327130 -84.327354 1488.125488
20 1312.175781 -701.934692 0.000954 -2.664096 1.414649 -84.247948 1488.125488
21 1312.175781 -701.934692 0.000954 -2.870598 1.342644 -84.389481 1488.125488
[Head]
19 1406.159424 809.709290 0.001431 -2.184412 1.484940 22.483255 1622.625488
20 1406.159424 809.709290 0.001431 -2.364150 1.535566 22.687639 1622.625488
21 1406.159424 809.709290 0.001431 -2.543711 1.586831 22.891869 1622.625488
[Motor_Bone]
19 1158.364380 -417.834747 0.000477 -2.286770 0.124830 -105.859787 1231.419434
20 1158.364380 -417.834747 0.000477 -2.487354 0.128373 -105.855659 1231.419434
21 1158.364380 -417.834747 0.000477 -2.687933 0.131929 -105.851517 1231.419434
[Ping_Mechanism]
19 1203.757324 -428.331299 13.642100 0.000103 -0.000053 82.120995 1277.765747
20 1203.681030 -428.362427 21.134151 0.000103 -0.000053 82.120995 1277.806274
21 1203.679443 -428.413696 24.030176 0.000103 -0.000053 82.120995 1277.873291
[BN_LookIK]
19 193.241119 1380.371704 -0.002861 0.000000 89.965736 -31.038179 1393.832153
20 193.241119 1380.371704 -0.002861 0.000000 89.965736 -31.038179 1393.832153
21 193.241119 1380.371704 -0.002861 0.000000 89.965736 -31.038179 1393.832153
[bottomMouth]
19 -435.092926 615.759399 -0.000954 -0.000022 0.000016 73.527184 753.966492
20 -435.092926 615.759399 -0.000954 -0.000022 0.000016 73.527184 753.966492
21 -435.092926 615.759399 -0.000954 -0.000022 0.000016 73.527184 753.966492
[L_Mouth01]
19 554.440979 7.658243 838.222046 150.204178 23.759130 109.605339 1005.027161
20 554.440979 7.658243 838.222046 150.204178 23.759130 109.605339 1005.027161
21 554.440979 7.658243 838.222046 150.204178 23.759130 109.605339 1005.027161
[L_mouthFront]
19 551.629089 934.514771 339.150421 0.000081 2.804060 79.119301 1136.941284
20 551.629089 934.514771 339.150421 0.000081 2.804060 79.119301 1136.941284
21 551.629089 934.514771 339.150421 0.000081 2.804060 79.119301 1136.941284
[mouthGun]
19 55.332661 1627.420898 0.000000 0.000023 0.000009 -11.038128 1628.361328
20 55.332661 1627.420898 0.000000 0.000023 0.000009 -11.038128 1628.361328
21 55.332661 1627.420898 0.000000 0.000023 0.000009 -11.038128 1628.361328
[R_Mouth01]
19 554.442383 7.659197 -838.223938 29.795891 -23.759109 109.605331 1005.029541
20 554.442383 7.659197 -838.223938 29.795891 -23.759109 109.605331 1005.029541
21 554.442383 7.659197 -838.223938 29.795891 -23.759109 109.605331 1005.029541
[R_mouthFront]
19 551.629089 934.514282 -339.151367 0.000029 -2.803930 79.119133 1136.941162
20 551.629089 934.514282 -339.151367 0.000029 -2.803930 79.119133 1136.941162
21 551.629089 934.514282 -339.151367 0.000029 -2.803930 79.119133 1136.941162
[TopMouth]
19 461.269867 -56.106091 -0.008583 -0.000059 -0.000268 92.025169 464.669525
20 461.269867 -56.106091 -0.008583 -0.000059 -0.000268 92.025169 464.669525
21 461.269867 -56.106091 -0.008583 -0.000059 -0.000268 92.025169 464.669525
[weapon_bone]
19 -987.239868 1448.372803 0.001431 0.000000 89.965736 -31.038221 1752.833740
20 -987.239868 1448.372803 0.001431 0.000000 89.965736 -31.038221 1752.833740
21 -987.239868 1448.372803 0.001431 0.000000 89.965736 -31.038221 1752.833740
